# xmcd CD database file
#
# Track frame offsets:
#	150
#	29385
#	44185
#	64297
#	85659
#	109008
#	137607
#	161419
#	184206
#	206405
#	233391
#	249866
#
# Disc length: 3603 seconds
#
# Revision: 0
# Processed by: cddbd v1.5.2PL0 Copyright (c) Steve Scherf et al.
# Submitted via: CDex 1.70beta2
#
DISCID=990e110c
DTITLE=大橋祐子  - Buenos Aires 1952
DYEAR=1900
DGENRE=Jazz
TTITLE0=Dark Eyes 黒い瞳
TTITLE1=Someday My Prince Will Come いつか王子様が
TTITLE2=Take Me In Your Arms テイク・ミー・イン・ユアー・アームズ
TTITLE3=Inner Swing インナー・スイング
TTITLE4=Sol Cubano ソル・クバーノ
TTITLE5=St. Louis Blues セント・ルイス・ブルース
TTITLE6=Fly Over フライ・オーバー
TTITLE7=Copacabana コパカバーナ
TTITLE8=Waltz Part2 ワルツ・パート2
TTITLE9=Buenos Aires 1952 ブエノス・アイレス 1952
TTITLE10=Over The Mountain オーバー・ザ・マウンテン
TTITLE11=Love Is A Many Splendored Thing 慕情
EXTD=
EXTT0=
EXTT1=
EXTT2=
EXTT3=
EXTT4=
EXTT5=
EXTT6=
EXTT7=
EXTT8=
EXTT9=
EXTT10=
EXTT11=
PLAYORDER=
